<?xml version="1.0" encoding="utf-8"?>
<!-- Generator: Adobe Illustrator 22.1.0, SVG Export Plug-In . SVG Version: 6.00 Build 0)  -->
<svg version="1.1" id="Слой_1" xmlns="http://www.w3.org/2000/svg" xmlns:xlink="http://www.w3.org/1999/xlink" x="0px" y="0px"
	 viewBox="0 0 297 297" style="enable-background:new 0 0 297 297;" xml:space="preserve">
<style type="text/css">
	.st0{fill:#4B422E;}
</style>
<g>
	<path class="st0" d="M72.5,69.3c19.1,0,34.7-15.5,34.7-34.7S91.6,0,72.5,0S37.8,15.5,37.8,34.7S53.4,69.3,72.5,69.3z"/>
	<path class="st0" d="M110.5,86.1L110.5,86.1l-9.9-3.1c-1.6-0.5-3.2,0.3-3.8,1.9L76,142c-1.2,3.3-5.9,3.3-7.1,0L48.1,84.9
		c-0.5-1.2-1.6-2-2.9-2c-0.3,0-10.8,3.2-10.8,3.2c-12.6,4.2-21.1,15.9-21.1,29.2v60.4c0,0.6,0.2,1.2,0.5,1.7l21.7,33v83.6
		c0,1.7,1.4,3.1,3.1,3.1h67.6c1.7,0,3.1-1.4,3.1-3.1v-83.6l21.7-33c0.3-0.5,0.5-1.1,0.5-1.7v-60.5
		C131.5,101.9,123.1,90.2,110.5,86.1z"/>
	<path class="st0" d="M250.7,49.6c-33.4-27.5-81.8-27.4-115.1,0.4l57.3,57.3L250.7,49.6L250.7,49.6z"/>
	<path class="st0" d="M263.5,62.4l-52.8,52.8l71.8,18C286.4,108.6,280,82.7,263.5,62.4z"/>
	<path class="st0" d="M186.8,125.9l-63.9-63c-3.4,4.3-6.4,8.8-9,13.6c16.6,5.6,27.8,21.1,27.8,38.6v60.5c0,2.6-0.8,5.1-2.2,7.3
		l-3.8,5.7c35.4,29.5,88.1,27.6,121.4-5.6c9.5-9.5,16.4-20.5,20.8-32.3l-86.8-22.3C189.5,127.9,188,127.1,186.8,125.9L186.8,125.9z"
		/>
	<path class="st0" d="M80.8,80.2c-0.9-1-2.2-1.4-3.5-1.4h-9.7c-1.3,0-2.6,0.5-3.5,1.4c-1.4,1.5-1.6,3.6-0.6,5.3l5.2,7.8l-2.4,20.4
		l4.8,12.7c0.5,1.3,2.3,1.3,2.7,0l4.8-12.7l-2.4-20.4l5.2-7.8C82.3,83.8,82.1,81.7,80.8,80.2z"/>
</g>
</svg>
