<?xml version="1.0" encoding="utf-8"?>
<!-- Generator: Adobe Illustrator 22.1.0, SVG Export Plug-In . SVG Version: 6.00 Build 0)  -->
<svg version="1.1" id="Слой_1" xmlns="http://www.w3.org/2000/svg" xmlns:xlink="http://www.w3.org/1999/xlink" x="0px" y="0px"
	 viewBox="0 0 427 427" style="enable-background:new 0 0 427 427;" xml:space="preserve">
<style type="text/css">
	.st0{fill:#4B422E;}
</style>
<path class="st0" d="M306.9,83.5c-33.6,0-60.8-27.2-60.8-60.8V0c-20.1,0.5-40,4.9-58.4,13v31.1c0,28.8-23.3,52.1-52.1,52.1h-29
	c-3.6,8.8-6.4,17.9-8.3,27.3h25.1c19.1,0,34.7,15.5,34.7,34.7c0,19.1-15.5,34.7-34.7,34.7h-33l-26.7,70c-0.1,0.4-0.1,0.8,0.1,1.1
	s0.6,0.5,1,0.5h47.5c3.3,0,6,2.7,6,6v48H159c22.1,0,43.6-7.6,60.7-21.6c-29.2-16.2-46.3-47.9-43.7-81.2
	c2.5-33.3,24.2-62.1,55.5-73.7s66.5-4,90.2,19.5l71.1-17.7c0.1-20.8-4.4-41.3-13-60.2H306.9z"/>
<path class="st0" d="M34.9,322.3v4.2c0,5,4,9,9,9h24.5v-22.1H43.8C38.9,313.4,34.9,317.4,34.9,322.3z"/>
<path class="st0" d="M281.3,222.1c0-10-7.4-18.4-17.3-19.8c-9.9-1.3-19.3,4.9-21.9,14.5c-2.6,9.6,2.3,19.7,11.5,23.6
	c1.2-6.1,1.8-12.2,1.8-18.4c0-3.3,2.7-6,6-6c3.3,0,6,2.7,6,6c0,6.5-0.6,13.1-1.8,19.5C274.7,239.6,281.3,231.5,281.3,222.1z"/>
<path class="st0" d="M164,72.5c7.5-7.5,11.8-17.7,11.8-28.4V19c-27.2,15-49.4,37.7-63.6,65.3h23.5C146.3,84.3,156.5,80.1,164,72.5z"
	/>
<path class="st0" d="M306.9,71.5h66.6c-0.2-0.3-0.4-0.7-0.6-1C348.7,28.7,305.8,2.5,258.1,0.1v22.5
	C258.1,49.6,279.9,71.5,306.9,71.5z"/>
<path class="st0" d="M146.2,158.2c0-12.5-10.2-22.7-22.7-22.7H96.3c-0.5,3.7-0.8,7.3-1,11.1c-0.1,2.1-0.2,21.4-0.2,33.2
	c0,0.4,0,0.8-0.1,1.2h28.5C136,180.9,146.1,170.7,146.2,158.2z"/>
<path class="st0" d="M274,380c0,5.3-4.3,9.7-9.7,9.7c-5.3,0-9.7-4.3-9.7-9.7c0-5.3,4.3-9.7,9.7-9.7C269.7,370.3,274,374.6,274,380z"
	/>
<path class="st0" d="M242.7,380c0-9.6,6.4-18.1,15.6-20.8v-33.7c-8.1,17.2-23,30.3-41.1,36.1c3.6,3.7,6.2,8.3,7.4,13.3
	c0.1,0.5,0.2,1,0.2,1.5V427h33.5v-26.3C249.1,398.1,242.7,389.6,242.7,380z"/>
<path class="st0" d="M261.3,295.7c37.5,0,69-28.1,73.2-65.3c4.3-37.2-20.1-71.7-56.6-80.2c-36.5-8.5-73.5,11.8-86.1,47.1
	c-12.5,35.3,3.4,74.4,37,90.8c9.7-10.3,17.1-22.6,21.5-36.1c-15.5-5.6-24.2-22-20.2-37.9s19.6-26.2,35.8-23.7
	c16.3,2.5,28,17,27,33.4c-0.9,16.4-14.2,29.4-30.7,30.1c-4.4,14.3-11.8,27.5-21.6,38.8C247.6,294.7,254.5,295.7,261.3,295.7z
	 M207.6,213.4c-3.2-0.9-5-4.2-4.2-7.4c2-7.1,5.3-13.8,9.7-19.8c2-2.7,5.7-3.2,8.4-1.2c2.7,2,3.2,5.7,1.2,8.4
	c-3.5,4.8-6.2,10.1-7.8,15.9c-0.4,1.5-1.4,2.8-2.8,3.6C210.8,213.6,209.2,213.8,207.6,213.4z M236,262.9c1.8,1.1,2.9,3.1,2.9,5.3
	c-0.1,2.1-1.3,4.1-3.2,5.1c-1.9,1-4.2,0.9-6-0.2c-6.3-3.9-11.8-8.9-16.3-14.9c-2-2.6-1.5-6.4,1.2-8.4c2.6-2,6.4-1.5,8.4,1.2
	C226.5,255.8,231,259.8,236,262.9L236,262.9z M285.8,173.5c-0.6,1.5-1.7,2.7-3.1,3.4c-1.4,0.7-3.1,0.7-4.6,0.2c-5.4-2-11.1-3-16.8-3
	h-0.6c-3.3,0-6-2.6-6.1-5.9c0-3.3,2.6-6,5.9-6.1h0.7c7.2,0,14.3,1.3,21,3.8C285.4,167,287,170.4,285.8,173.5z M307.4,193.2
	c3-1.4,6.6-0.2,8,2.8c3.2,6.7,5.2,13.9,5.8,21.3c0.3,3.3-2.2,6.2-5.5,6.4c-0.2,0-0.3,0-0.5,0c-3.1,0-5.7-2.4-6-5.5
	c-0.5-5.9-2-11.7-4.6-17C303.2,198.2,304.5,194.6,307.4,193.2z M278.4,267c1.3-0.5,2.5-1,3.8-1.6c4.1-2,7.9-4.5,11.3-7.6
	c1.6-1.5,3.8-1.9,5.9-1.3c2,0.7,3.6,2.4,4,4.5c0.4,2.1-0.3,4.3-1.9,5.7c-4.2,3.8-9,7-14.1,9.4c-1.5,0.7-3.1,1.4-4.7,2
	c-3.1,1.2-6.5-0.4-7.7-3.5C273.8,271.7,275.3,268.2,278.4,267z"/>
<path class="st0" d="M251.8,307.1c-6.9-0.8-13.7-2.4-20.2-4.8c-19.9,18.1-45.8,28.1-72.7,28.1h-39.8c3.4,13.6,15.8,23.1,29.8,22.7
	c2-0.1,17.9-0.2,47.3-0.3h0.2C223.5,352.7,246.6,333.6,251.8,307.1z"/>
<path class="st0" d="M299.6,350.8c0-9.6,6.4-18.1,15.6-20.8v-41.5c-12.8,10.4-28.4,16.9-44.9,18.7v52c9.3,2.7,15.6,11.1,15.6,20.8
	c0,9.6-6.4,18.1-15.6,20.8V427h44.9v-55.4C305.9,368.9,299.6,360.4,299.6,350.8z"/>
<path class="st0" d="M330.8,350.8c0,5.3-4.3,9.7-9.7,9.7c-5.3,0-9.7-4.3-9.7-9.7c0-5.3,4.3-9.7,9.7-9.7
	C326.5,341.1,330.8,345.5,330.8,350.8z"/>
<path class="st0" d="M346.9,222.1c0,20-7,39.3-19.8,54.6V330c9.3,2.7,15.6,11.1,15.6,20.8c0,9.6-6.4,18.1-15.6,20.8V427h29.2
	c-1.1-22.9-4.5-102.4,0.3-154.3c1.7-18.7,18.6-60.5,19.3-62.3c0.1-0.2,0.2-0.4,0.2-0.5c8.7-16.7,14.1-34.9,15.8-53.7l-61.7,15.4
	C341.2,186.2,347,203.9,346.9,222.1z"/>
</svg>
