<svg id="Objects" xmlns="http://www.w3.org/2000/svg" xmlns:xlink="http://www.w3.org/1999/xlink" viewBox="0 0 190.94 380.81"><defs><style>.cls-1,.cls-14,.cls-6{fill:none;}.cls-2{fill:#818284;}.cls-3{fill:#010101;}.cls-11,.cls-17,.cls-19,.cls-28,.cls-4,.cls-8{fill:#fff;}.cls-5{fill:#535353;}.cls-14,.cls-6{stroke:#fff;stroke-linecap:round;stroke-linejoin:round;}.cls-6{stroke-width:0.75px;}.cls-7{fill:#027fcc;}.cls-8{font-size:5.4px;}.cls-11,.cls-19,.cls-21,.cls-28,.cls-8{font-family:Quicksand-Regular, Quicksand Regular;}.cls-9{letter-spacing:0em;}.cls-10{letter-spacing:0em;}.cls-11{font-size:5.11px;}.cls-12{fill:#f8f8f6;}.cls-13{fill:#0084ff;}.cls-15{clip-path:url(#clip-path);}.cls-16{fill:#e2e7ea;}.cls-17{font-size:9.31px;font-family:Quicksand-Bold, Quicksand Bold;font-weight:700;}.cls-18{letter-spacing:-0.01em;}.cls-19{font-size:4.79px;}.cls-20{fill:#eaeaea;}.cls-21,.cls-28{font-size:6px;}.cls-21{fill:#3c4447;}.cls-22{letter-spacing:-0.04em;}.cls-23{letter-spacing:-0.04em;}.cls-24{letter-spacing:0em;}.cls-25{letter-spacing:0.02em;}.cls-26{fill:#3a3a3a;}.cls-27{fill:#0085fe;}.cls-29{letter-spacing:-0.06em;}.cls-30{letter-spacing:-0.02em;}.cls-31{letter-spacing:0.03em;}.cls-32{letter-spacing:0.02em;}.cls-33{letter-spacing:-0.06em;}.cls-34{opacity:0.4;}.cls-35{fill:#f5fdff;opacity:0.1;}</style><clipPath id="clip-path" transform="translate(-154.53 -59.6)"><path class="cls-1" d="M198.74,118.79a9.52,9.52,0,1,1-9.52-9.52A9.53,9.53,0,0,1,198.74,118.79Z"/></clipPath></defs><title>screen</title><rect class="cls-2" width="190.94" height="380.81" rx="28.16" ry="28.16"/><rect class="cls-3" x="1.44" y="2.09" width="188.44" height="375.83" rx="28.16" ry="28.16"/><rect class="cls-4" x="6.85" y="31.48" width="178.05" height="315.9"/><path class="cls-5" d="M268.21,79.87H230.62a1.32,1.32,0,0,1-1.32-1.32h0a1.32,1.32,0,0,1,1.32-1.32h37.59a1.32,1.32,0,0,1,1.32,1.32h0A1.32,1.32,0,0,1,268.21,79.87Z" transform="translate(-154.53 -59.6)"/><rect class="cls-4" x="35.38" y="358.24" width="7.14" height="0.98"/><rect class="cls-6" x="93.26" y="358.78" width="5.6" height="5.52"/><path class="cls-6" d="M303.42,418l-2.58,2.58a1,1,0,0,0,0,1.4l2.58,2.58" transform="translate(-154.53 -59.6)"/><rect class="cls-7" x="6.34" y="31.48" width="179" height="11.1"/><path class="cls-4" d="M307,97a.59.59,0,1,1-.59.58A.58.58,0,0,1,307,97Z" transform="translate(-154.53 -59.6)"/><path class="cls-4" d="M308.37,96.16l0,0,0,0h0a1.94,1.94,0,0,0-2.66.06l-.08.09-.12.12a.37.37,0,0,0,0,.52.37.37,0,0,0,.52,0l.21-.2a1.18,1.18,0,0,1,1.68,0l.14.14a.37.37,0,0,0,.52,0,.36.36,0,0,0,0-.52Z" transform="translate(-154.53 -59.6)"/><path class="cls-4" d="M309.37,95.43l-.12-.12h0l-.1-.1,0,0a3.21,3.21,0,0,0-4.34.1h0l-.22.22A.34.34,0,1,0,305,96l.22-.22h0a2.53,2.53,0,0,1,3.5,0l.18.17a.34.34,0,1,0,.47-.48Z" transform="translate(-154.53 -59.6)"/><text class="cls-8" transform="translate(10.48 39.07)">10:30 <tspan class="cls-9" x="13.34" y="0">A</tspan><tspan class="cls-10" x="16.62" y="0">M</tspan></text><text class="cls-11" transform="translate(157.85 38.54)">85%</text><path class="cls-12" d="M327,98.63a.45.45,0,0,1-.46-.43V94.87a.45.45,0,0,1,.46-.43h7.74a.45.45,0,0,1,.47.42v.69h.6v2h-.6v.68a.44.44,0,0,1-.46.42Zm7.88-3.9h-8v3.59l8,0Zm-7.71.35,5.83,0V98h-5.84Z" transform="translate(-154.53 -59.6)"/><rect class="cls-13" x="6.34" y="42.52" width="179.04" height="32.48"/><polyline class="cls-14" points="16.14 56.61 12.68 59.67 16.06 62.74"/><line class="cls-14" x1="12.88" y1="59.72" x2="21.75" y2="59.72"/><g class="cls-15"><path class="cls-16" d="M198.74,118.79a9.52,9.52,0,1,1-9.52-9.52A9.53,9.53,0,0,1,198.74,118.79Z" transform="translate(-154.53 -59.6)"/><path class="cls-4" d="M192.65,118.47a3.38,3.38,0,1,1-3.38-3.38A3.38,3.38,0,0,1,192.65,118.47Z" transform="translate(-154.53 -59.6)"/><path class="cls-4" d="M183.18,126.5s1.3-3.56,6-3.56,6,3.3,6,3.3a6.49,6.49,0,0,1-5.31,2.47C185,128.84,183.18,126.5,183.18,126.5Z" transform="translate(-154.53 -59.6)"/></g><text class="cls-17" transform="translate(48.86 60.53)"><tspan class="cls-18">U</tspan><tspan x="5.97" y="0">ser</tspan></text><text class="cls-19" transform="translate(49.74 66.68)">online</text><rect class="cls-4" x="174.18" y="52.32" width="2.65" height="2.87"/><rect class="cls-4" x="174.18" y="57.06" width="2.65" height="2.87"/><rect class="cls-4" x="174.18" y="62.25" width="2.65" height="2.87"/><path class="cls-20" d="M166.47,170H255a7.44,7.44,0,0,1,7.44,7.43v17a7.44,7.44,0,0,1-7.44,7.44H181.5a7.44,7.44,0,0,1-7.44-7.44v-15Z" transform="translate(-154.53 -59.6)"/><text class="cls-21" transform="translate(28.77 122.7)"><tspan class="cls-22">L</tspan><tspan x="2.6" y="0">OREM IPSUM DO</tspan><tspan class="cls-23" x="44.7" y="0">L</tspan><tspan x="47.3" y="0">OR SIT </tspan><tspan class="cls-24" x="0" y="7">A</tspan><tspan x="3.65" y="7">M</tspan><tspan class="cls-25" x="8.47" y="7">E</tspan><tspan x="11.52" y="7">T</tspan></text><line class="cls-26" x1="38.9" y1="133.52" x2="36.94" y2="135.48"/><path class="cls-27" d="M337.22,211.7H199.57a8.44,8.44,0,0,0-8.44,8.45v29.31a8.45,8.45,0,0,0,8.44,8.45H320.16a8.45,8.45,0,0,0,8.44-8.45V222.39Z" transform="translate(-154.53 -59.6)"/><text class="cls-28" transform="translate(52.17 169.35)"><tspan class="cls-22">L</tspan><tspan x="2.6" y="0">OREM IPSUM DO</tspan><tspan class="cls-23" x="44.7" y="0">L</tspan><tspan x="47.3" y="0">OR SIT </tspan><tspan class="cls-24" x="64.58" y="0">A</tspan><tspan x="68.22" y="0">M</tspan><tspan class="cls-25" x="73.05" y="0">E</tspan><tspan class="cls-29" x="76.1" y="0">T</tspan><tspan x="78.72" y="0">, </tspan><tspan class="cls-30" x="0" y="8">C</tspan><tspan x="3.35" y="8">ONSE</tspan><tspan class="cls-31" x="17.35" y="8">C</tspan><tspan x="20.99" y="8">T</tspan><tspan class="cls-32" x="23.98" y="8">E</tspan><tspan x="27.02" y="8">TUER ADIPISCING ELI</tspan><tspan class="cls-33" x="79.25" y="8">T</tspan><tspan x="81.87" y="8">, SED DI</tspan><tspan class="cls-24" x="101" y="8">A</tspan><tspan x="104.64" y="8">M </tspan><tspan x="0" y="16">NONUMMY NIBH </tspan></text><path class="cls-20" d="M169.51,269.72H291.16a7.44,7.44,0,0,1,7.44,7.44v17a7.44,7.44,0,0,1-7.44,7.44H184.54a7.44,7.44,0,0,1-7.44-7.44v-15Z" transform="translate(-154.53 -59.6)"/><text class="cls-21" transform="translate(34.69 223.33)"><tspan class="cls-22">L</tspan><tspan x="2.6" y="0">OREM IPSUM DO</tspan><tspan class="cls-23" x="44.7" y="0">L</tspan><tspan x="47.3" y="0">OR SIT </tspan><tspan class="cls-24" x="64.58" y="0">A</tspan><tspan x="68.22" y="0">M</tspan><tspan class="cls-25" x="73.05" y="0">E</tspan><tspan class="cls-29" x="76.1" y="0">T</tspan><tspan x="78.72" y="0">, </tspan><tspan class="cls-30" x="0" y="8">C</tspan><tspan x="3.35" y="8">ONSE</tspan><tspan class="cls-31" x="17.35" y="8">C</tspan><tspan x="20.99" y="8">T</tspan><tspan class="cls-32" x="23.98" y="8">E</tspan><tspan x="27.02" y="8">TUER ADIPISCING </tspan></text><path class="cls-20" d="M172.22,347.55H293.87a7.44,7.44,0,0,1,7.44,7.44v17a7.44,7.44,0,0,1-7.44,7.43H187.24a7.43,7.43,0,0,1-7.43-7.43V357Z" transform="translate(-154.53 -59.6)"/><text class="cls-21" transform="translate(38.21 301.07)"><tspan class="cls-22">L</tspan><tspan x="2.6" y="0">OREM IPSUM DO</tspan><tspan class="cls-23" x="44.7" y="0">L</tspan><tspan x="47.3" y="0">OR SIT </tspan><tspan class="cls-24" x="64.58" y="0">A</tspan><tspan x="68.22" y="0">M</tspan><tspan class="cls-25" x="73.05" y="0">E</tspan><tspan class="cls-29" x="76.1" y="0">T</tspan><tspan x="78.72" y="0">, </tspan><tspan class="cls-30" x="0" y="8">C</tspan><tspan x="3.35" y="8">ONSE</tspan><tspan class="cls-31" x="17.35" y="8">C</tspan><tspan x="20.99" y="8">T</tspan><tspan class="cls-32" x="23.98" y="8">E</tspan><tspan x="27.02" y="8">TUER ADIPISCING </tspan></text><path class="cls-27" d="M337,311.68H248.51a7.44,7.44,0,0,0-7.44,7.43V327a7.44,7.44,0,0,0,7.44,7.44H322a7.44,7.44,0,0,0,7.44-7.44v-5.91Z" transform="translate(-154.53 -59.6)"/><text class="cls-28" transform="translate(96.87 265.43)"><tspan class="cls-22">L</tspan><tspan x="2.6" y="0">OREM IPSUM DO</tspan><tspan class="cls-23" x="44.7" y="0">L</tspan><tspan x="47.3" y="0">OR </tspan></text><g class="cls-34"><text class="cls-21" transform="matrix(1, 0, 0, 1, 82, 91.21)">THU 12:00</text></g><path class="cls-35" d="M269.47,60.69,158,410.35,155.5,87.84A26.42,26.42,0,0,1,181.56,61.2C215.28,60.74,269.48,60.08,269.47,60.69Z" transform="translate(-154.53 -59.6)"/></svg>