<?xml version="1.0" encoding="utf-8"?>
<!-- Generator: Adobe Illustrator 22.1.0, SVG Export Plug-In . SVG Version: 6.00 Build 0)  -->
<svg version="1.1" xmlns="http://www.w3.org/2000/svg" xmlns:xlink="http://www.w3.org/1999/xlink" x="0px" y="0px"
	 viewBox="0 0 190.9 380.8" style="enable-background:new 0 0 190.9 380.8;" xml:space="preserve">
<style type="text/css">
	.st0{fill:#818284;}
	.st1{fill:#010101;}
	.st2{fill:#98C2EA;}
	.st3{fill:#535353;}
	.st4{fill:#FFFFFF;}
	.st5{fill:none;stroke:#FFFFFF;stroke-width:0.75;stroke-linecap:round;stroke-linejoin:round;}
	.st6{fill:#426482;}
	.st7{font-family:'ArialMT';}
	.st8{font-size:5.4px;}
	.st9{font-size:5.11px;}
	.st10{fill:#F8F8F6;}
	.st11{fill:#527DA3;}
	.st12{fill:none;stroke:#FFFFFF;stroke-width:0.5;stroke-linecap:round;stroke-linejoin:round;}
	.st13{clip-path:url(#SVGID_2_);}
	.st14{font-family:'Roboto-Regular';}
	.st15{font-size:4.79px;}
	.st16{fill:none;}
	.st17{display:none;opacity:0.1;fill:#F5FDFF;enable-background:new    ;}
	.st18{font-size:10px;}
	.st19{fill:#1C73B6;}
	.st20{font-size:5px;}
	.st21{font-size:6px;}
	.st22{fill:#E3F2FE;}
	.st23{fill:#0088CC;}
</style>
<g id="Objects">
	<title>screen</title>
	<path class="st0" d="M28.2,0h134.6c15.6,0,28.2,12.6,28.2,28.2v324.5c0,15.6-12.6,28.2-28.2,28.2H28.2C12.6,380.8,0,368.2,0,352.6
		V28.2C0,12.6,12.6,0,28.2,0z"/>
	<path class="st1" d="M29.6,2.1h132.1c15.6,0,28.2,12.6,28.2,28.2v319.5c0,15.6-12.6,28.2-28.2,28.2H29.6
		c-15.6,0-28.2-12.6-28.2-28.2V30.3C1.4,14.7,14,2.1,29.6,2.1z"/>
	<rect x="4.2" y="32.5" class="st2" width="178.1" height="315.9"/>
	<path class="st3" d="M113.7,20.3H76.1c-0.7,0-1.3-0.6-1.3-1.3v0l0,0c0-0.7,0.6-1.3,1.3-1.3l0,0h37.6c0.7,0,1.3,0.6,1.3,1.3v0l0,0
		C115,19.7,114.4,20.3,113.7,20.3L113.7,20.3z"/>
	<rect x="35.4" y="358.2" class="st4" width="7.1" height="1"/>
	<rect x="93.3" y="358.8" class="st5" width="5.6" height="5.5"/>
	<path class="st5" d="M148.9,358.4l-2.6,2.6c-0.4,0.4-0.4,1,0,1.4l2.6,2.6"/>
	<rect x="3.8" y="31.5" class="st6" width="179" height="11.1"/>
	<path class="st4" d="M152.5,37.4c0.3,0,0.6,0.3,0.6,0.6c0,0.3-0.3,0.6-0.6,0.6c-0.3,0-0.6-0.3-0.6-0.6c0,0,0,0,0,0
		C151.9,37.7,152.1,37.4,152.5,37.4C152.5,37.4,152.5,37.4,152.5,37.4z"/>
	<path class="st4" d="M153.8,36.6L153.8,36.6L153.8,36.6L153.8,36.6c-0.8-0.7-1.9-0.7-2.7,0.1l-0.1,0.1l-0.1,0.1
		c-0.1,0.1-0.1,0.4,0,0.5c0.1,0.1,0.4,0.1,0.5,0l0.2-0.2c0.5-0.5,1.2-0.5,1.7,0c0,0,0,0,0,0l0.1,0.1c0.1,0.1,0.4,0.1,0.5,0
		c0.1-0.1,0.1-0.4,0-0.5c0,0,0,0,0,0L153.8,36.6z"/>
	<path class="st4" d="M154.8,35.8l-0.1-0.1l0,0l-0.1-0.1l0,0c-1.3-1.1-3.1-1.1-4.3,0.1l0,0l-0.2,0.2c-0.2,0.1-0.3,0.2-0.2,0.4
		c0.1,0.2,0.2,0.3,0.4,0.2c0.1,0,0.2-0.1,0.2-0.2l0.2-0.2l0,0c1-0.9,2.5-0.9,3.5,0l0.2,0.2c0.1,0.2,0.3,0.2,0.5,0.1
		c0.2-0.1,0.2-0.3,0.1-0.5C154.9,35.9,154.9,35.9,154.8,35.8L154.8,35.8z"/>
	<text transform="matrix(1 0 0 1 10.48 39.0699)" class="st4 st7 st8">10:30 </text>
	<text transform="matrix(1 0 0 1 23.82 39.0699)" class="st4 st7 st8">A</text>
	<text transform="matrix(1 0 0 1 27.1 39.0699)" class="st4 st7 st8">M</text>
	<text transform="matrix(1 0 0 1 157.85 38.54)" class="st4 st7 st9">85%</text>
	<path class="st10" d="M172.5,39c-0.2,0-0.4-0.2-0.5-0.4v-3.3c0-0.2,0.2-0.4,0.5-0.4h7.7c0.2,0,0.5,0.2,0.5,0.4V36h0.6v2h-0.6v0.7
		c0,0.2-0.2,0.4-0.5,0.4c0,0,0,0,0,0L172.5,39z M180.4,35.1h-8v3.6h8V35.1z M172.6,35.5h5.8v2.9h-5.8L172.6,35.5z"/>
	<rect x="3.7" y="42.3" class="st11" width="179" height="32.5"/>
	<polyline class="st12" points="15.7,56.6 12.2,59.7 15.6,62.7 	"/>
	<line class="st12" x1="12.4" y1="59.7" x2="19" y2="59.7"/>
	<g>
		<defs>
			<path id="SVGID_1_" d="M49.6,59.2c0,5.3-4.3,9.5-9.5,9.5c-5.3,0-9.5-4.3-9.5-9.5c0-5.3,4.3-9.5,9.5-9.5l0,0
				C45.4,49.7,49.6,53.9,49.6,59.2z"/>
		</defs>
		<clipPath id="SVGID_2_">
			<use xlink:href="#SVGID_1_"  style="overflow:visible;"/>
		</clipPath>
		<g class="st13">
			<path class="st4" d="M49.6,59.2c0,5.3-4.3,9.5-9.5,9.5c-5.3,0-9.5-4.3-9.5-9.5c0-5.3,4.3-9.5,9.5-9.5l0,0
				C45.4,49.7,49.6,53.9,49.6,59.2z"/>
		</g>
	</g>
	<text transform="matrix(1 0 0 1 56.489 66.6798)" class="st4 st14 st15">bot</text>
	<line class="st16" x1="38.9" y1="133.5" x2="36.9" y2="135.5"/>
	<path class="st17" d="M114.9,1.1L3.5,350.8L1,28.2C0.8,13.7,12.5,1.8,27,1.6C60.8,1.1,115,0.5,114.9,1.1z"/>
	<text transform="matrix(1 0 0 1 54.4192 59.9302)" class="st4 st14 st18">TBot</text>
	<g>
		<circle class="st4" cx="171.6" cy="55.6" r="1"/>
		<circle class="st4" cx="171.6" cy="58.5" r="1"/>
		<circle class="st4" cx="171.6" cy="61.4" r="1"/>
	</g>
	<path class="st4" d="M152.8,134.5H14c-1.8,0-8.9-1-9.8-2.5c-0.4-0.7,4.8-1.6,4.8-2.5V88.8c0-2.8,2.3-5,5-5h138.8c2.8,0,5,2.3,5,5
		v40.7C157.8,132.3,155.6,134.5,152.8,134.5z"/>
	<text transform="matrix(1 0 0 1 15.7199 90.3333)" class="st19 st14 st20">TBot</text>
	<text transform="matrix(0.9839 0 0 1 15.7197 100.3333)"><tspan x="0" y="0" class="st14 st21">Привет! Вас приветствует Телеграмм бот - TBot.</tspan><tspan x="0" y="7.2" class="st14 st21">Я буду помогать вам в путешествии по нашим</tspan><tspan x="0" y="14.4" class="st14 st21">услугам.</tspan><tspan x="0" y="28.8" class="st14 st21">Что бы вы хотели узнать?</tspan></text>
	<path class="st22" d="M171.6,160H20.7c-2.8,0-5-1.7-5-3.8v-9.4c0-2.1,2.3-3.8,5-3.8h150.9c2.8,0,5,1.7,5,3.8v9.4
		c0,1,6.5,1.9,5.6,2.6C181.4,159.5,173.1,160,171.6,160z"/>
	<text transform="matrix(1 0 0 1 23.82 153.5752)" class="st14 st21">Хотелось бы узнать поподробнее о вашей услуге</text>
	<path class="st4" d="M152.8,252.7H14c-1.8,0-8.9-1.7-9.8-4.1c-0.4-1.3,4.8-2.7,4.8-4.3v-68.4c0-4.6,2.3-8.4,5-8.4h138.8
		c2.8,0,5,3.8,5,8.4v68.4C157.8,248.9,155.6,252.7,152.8,252.7z"/>
	<text transform="matrix(1 0 0 1 15.6702 173.4613)" class="st19 st14 st20">TBot</text>
	<text transform="matrix(0.9839 0 0 1 15.67 182.3333)"><tspan x="0" y="0" class="st14 st21">Конечно! Наша компания занимается</tspan><tspan x="0" y="7.2" class="st14 st21">индивидуальной разработкой ботов на Telegram.</tspan><tspan x="0" y="21.6" class="st14 st21">Боты - это совершенно новый и неосвоенный</tspan><tspan x="0" y="28.8" class="st14 st21">канал поддержки и продаж, который вы можете</tspan><tspan x="0" y="36" class="st14 st21">использовать, чтобы автоматически</tspan><tspan x="0" y="43.2" class="st14 st21">обрабатывать вопросы клиентов, дав ссылку в</tspan><tspan x="0" y="50.4" class="st14 st21">социальных сетях или на сайте.</tspan><tspan x="0" y="64.8" class="st14 st21">Заинтересованы? Хотите узнать условия?</tspan></text>
	<path class="st22" d="M179.9,275.8h-39.9c-0.7,0-1.3-1.7-1.3-3.8v-9.4c0-2.1,0.6-3.8,1.3-3.8h39.9c0.7,0,1.3,1.7,1.3,3.8v9.4
		c0,1,1.7,1.9,1.5,2.6C182.5,275.4,180.3,275.8,179.9,275.8z"/>
	<text transform="matrix(1 0 0 1 145.4867 269.4204)" class="st14 st21">Конечно!</text>
	<path class="st4" d="M152.8,332.6H14c-1.8,0-8.9-1-9.8-2.5c-0.4-0.7,4.8-1.6,4.8-2.5v-40.7c0-2.8,2.3-5,5-5h138.8c2.8,0,5,2.3,5,5
		v40.7C157.8,330.3,155.6,332.6,152.8,332.6z"/>
	<text transform="matrix(0.9839 0 0 1 15.67 297.2567)"><tspan x="0" y="0" class="st14 st21">Отлично! Для того, чтобы создать Telegram бота,</tspan><tspan x="0" y="7.2" class="st14 st21">вы можете оставить заявку прямо тут, указав</tspan><tspan x="0" y="14.4" class="st14 st21">свой номер телефона, почту или имя</tspan><tspan x="0" y="21.6" class="st14 st21">пользователя Telegram. Наш специалист свяжется</tspan><tspan x="0" y="28.8" class="st14 st21">свами для обсуждения деталей</tspan><tspan x="0" y="36" class="st14 st21">свяжутся с вами в течение 1 дня</tspan></text>
	
		<image style="overflow:visible;" width="720" height="99" xlink:href="../../../../../../Desktop/telegram_bottom.png"  transform="matrix(0.2473 0 0 0.2473 4.235 323.8731)">
	</image>
	<text transform="matrix(1 0 0 1 15.7203 290.128)" class="st19 st14 st20">TBot</text>
</g>
<g id="Слой_2">
	<path class="st23" d="M44.8,55.6v1.3c0.3-0.1,0.4-0.4,0.4-0.7C45.3,56,45.1,55.7,44.8,55.6z"/>
	<path class="st23" d="M40.2,53.2v-0.8c0.5-0.1,0.9-0.6,0.8-1.2c-0.1-0.5-0.5-1-1.1-1c-0.6,0-1,0.4-1.1,0.9
		c-0.1,0.5,0.2,1.1,0.8,1.2v0.8H40.2z"/>
	<path class="st23" d="M38,57.5h4v0.3h-4V57.5z"/>
	<path class="st23" d="M38,58.4h4v0.3h-4V58.4z"/>
	<path class="st23" d="M41.4,55h0.8v0.7h-0.8V55z"/>
	<path class="st23" d="M37.8,55h0.8v0.7h-0.8V55z"/>
	<path class="st23" d="M35.1,55.6c-0.3,0.1-0.4,0.4-0.4,0.7c0,0.3,0.2,0.5,0.4,0.7V55.6z"/>
	<path class="st23" d="M38.1,60.4h3.7v0.8h-3.7V60.4z"/>
	<path class="st23" d="M42.5,61.8h-5c-1.6,0-3,1.3-3,3v0.4c0,0.4,0.3,0.6,0.6,0.6h1c0.4,0,0.6-0.3,0.6-0.6v-0.9
		c0-0.5,0.4-0.9,0.9-0.9h4.5c0.5,0,0.9,0.4,0.9,0.9v0.9c0,0.4,0.3,0.6,0.6,0.6h1c0.4,0,0.6-0.3,0.6-0.6v-0.4
		C45.4,63.1,44.1,61.8,42.5,61.8z"/>
	<path class="st23" d="M36.3,59.9h7.3c0.4,0,0.6-0.3,0.6-0.6v-5.1c0-0.4-0.3-0.6-0.6-0.6h-7.3c-0.4,0-0.6,0.3-0.6,0.6v5.1
		C35.7,59.6,36,59.9,36.3,59.9z M42.5,58.3c0,0.5-0.4,0.9-0.9,0.9h-3.3c-0.5,0-0.9-0.4-0.9-0.9v-0.4c0-0.5,0.4-0.9,0.9-0.9h3.3
		c0.5,0,0.9,0.4,0.9,0.9V58.3z M40.9,55.3c0-0.5,0.4-0.9,0.9-0.9l0,0c0.5,0,0.9,0.4,0.9,0.9l0,0c0,0.5-0.4,0.9-0.9,0.9l0,0
		C41.3,56.3,40.9,55.9,40.9,55.3L40.9,55.3z M37.2,55.3c0-0.5,0.4-0.9,0.9-0.9h0c0.5,0,0.9,0.4,0.9,0.9l0,0c0,0.5-0.4,0.9-0.9,0.9h0
		C37.6,56.3,37.2,55.9,37.2,55.3L37.2,55.3z"/>
	<path class="st23" d="M38,63.9h4c0.4,0,0.6,0.3,0.6,0.6v0.7c0,0.4-0.3,0.6-0.6,0.6h-4c-0.4,0-0.6-0.3-0.6-0.6v-0.7
		C37.3,64.2,37.6,63.9,38,63.9z"/>
</g>
</svg>
